<?xml version="1.0" encoding="utf-8" ?>
<svg baseProfile="tiny" height="324px" version="1.2" width="631px" xmlns="http://www.w3.org/2000/svg" xmlns:ev="http://www.w3.org/2001/xml-events" xmlns:xlink="http://www.w3.org/1999/xlink"><defs /><path d="M405,205 404,206 403,206 402,207 402,208 401,209 401,210 402,211 402,212 403,213 404,213 406,215 408,215 409,216 417,216 418,215 419,215 420,214 421,214 423,212 423,211 424,210 424,209 422,209 421,210 415,210 414,209 413,209 412,208 411,208 408,205" fill="black" /><path d="M512,200 511,201 511,203 510,204 510,205 509,206 509,208 508,209 508,211 507,212 507,215 510,215 511,214 512,214 514,212 514,211 515,210 515,209 516,208 516,206 517,205 517,203 518,202 518,200" fill="black" /><path d="M240,199 238,201 238,202 237,203 237,205 236,206 236,208 235,209 235,211 234,212 234,215 238,215 242,211 242,210 243,209 243,208 244,207 244,205 245,204 245,199" fill="black" /><path d="M301,191 300,192 300,214 301,215 302,215 303,214 304,214 305,213 306,213 307,212 307,211 308,210 308,192 307,191" fill="black" /><path d="M352,190 352,214 353,215 379,215 380,214 381,214 384,211 384,209 361,209 359,207 359,191 358,190" fill="black" /><path d="M406,168 405,169 404,169 402,171 402,173 401,174 401,177 402,178 402,180 403,181 403,182 406,185 407,185 408,186 409,186 410,187 412,187 413,188 418,188 419,189 422,189 423,190 424,190 425,191 426,191 429,194 429,195 430,196 430,198 431,199 431,204 430,205 430,208 429,209 429,210 427,212 427,213 426,214 426,215 427,214 429,214 431,212 432,212 435,209 435,208 436,207 436,206 437,205 437,202 438,201 438,195 437,194 437,191 436,190 436,189 433,186 432,186 430,184 429,184 428,183 426,183 425,182 422,182 421,181 417,181 416,180 414,180 409,175 409,168" fill="black" /><path d="M523,166 523,167 522,168 522,170 521,171 521,173 520,174 520,176 519,177 519,178 518,179 518,181 517,182 517,184 516,185 516,187 515,188 515,190 514,191 514,193 513,194 513,195 514,195 515,196 532,196 533,195 533,192 532,191 532,190 524,190 522,188 522,187 523,186 523,184 524,183 524,181 525,180 525,178 526,177 526,172 525,171 525,168" fill="black" /><path d="M250,166 249,167 249,169 248,170 248,172 247,173 247,175 246,176 246,178 245,179 245,181 244,182 244,184 243,185 243,187 242,188 242,190 241,191 241,193 240,194 240,195 241,196 260,196 261,195 261,193 260,192 260,191 259,190 252,190 250,188 250,185 251,184 251,182 252,181 252,179 253,178 253,170 252,169 252,167 251,166" fill="black" /><path d="M473,164 472,165 470,165 469,166 469,214 470,215 471,215 472,214 473,214 474,213 475,213 476,212 476,211 477,210 477,166 476,165 475,165 474,164" fill="black" /><path d="M355,164 354,165 352,165 352,186 377,186 380,183 380,180 361,180 359,178 359,165 357,165 356,164" fill="black" /><path d="M304,164 303,165 301,165 300,166 300,186 301,187 325,187 326,186 327,186 327,185 329,183 329,181 309,181 308,180 308,166 307,165 306,165 305,164" fill="black" /><path d="M457,154 456,155 455,155 454,156 454,157 453,158 453,160 492,160 494,158 494,157 495,156 495,155 494,154" fill="black" /><path d="M358,154 357,155 355,155 352,158 352,160 380,160 383,157 383,154" fill="black" /><path d="M307,154 306,155 304,155 300,159 300,160 330,160 332,158 332,157 333,156 333,155 332,154" fill="black" /><path d="M530,153 528,155 527,155 527,156 526,157 526,161 527,162 527,164 528,165 528,167 529,168 529,170 530,171 530,173 531,174 531,176 532,177 532,179 533,180 533,182 534,183 534,185 535,186 535,188 536,189 536,191 537,192 537,194 538,195 538,196 539,197 539,199 540,200 540,202 541,203 541,205 542,206 542,208 543,209 543,211 544,212 544,214 545,215 547,215 548,214 549,214 550,213 550,212 551,211 551,208 550,207 550,205 549,204 549,202 548,201 548,199 547,198 547,197 546,196 546,194 545,193 545,191 544,190 544,188 543,187 543,185 542,184 542,182 541,181 541,179 540,178 540,176 539,175 539,173 538,172 538,170 537,169 537,168 536,167 536,165 535,164 535,162 534,161 534,159 533,158 533,156 532,155 532,154 531,153" fill="black" /><path d="M419,153 418,154 414,154 413,155 412,155 411,156 410,156 409,157 408,157 402,163 402,164 401,165 401,167 402,166 403,166 407,162 408,162 409,161 410,161 411,160 413,160 414,159 420,159 421,160 423,160 424,161 426,161 427,162 430,162 431,161 432,161 434,159 434,157 432,155 431,155 430,154 427,154 426,153" fill="black" /><path d="M257,153 256,154 255,154 253,156 253,161 254,162 254,164 255,165 255,167 256,168 256,170 257,171 257,173 258,174 258,176 259,177 259,179 260,180 260,182 261,183 261,185 262,186 262,188 263,189 263,191 264,192 264,194 265,195 265,197 266,198 266,200 267,201 267,202 268,203 268,205 269,206 269,208 270,209 270,211 271,212 271,214 272,215 274,215 275,214 276,214 278,212 278,211 279,210 278,209 278,207 277,206 277,204 276,203 276,201 275,200 275,198 274,197 274,195 273,194 273,192 272,191 272,189 271,188 271,186 270,185 270,183 269,182 269,181 268,180 268,178 267,177 267,175 266,174 266,172 265,171 265,169 264,168 264,166 263,165 263,163 262,162 262,160 261,159 261,157 260,156 260,155 259,154 259,153" fill="black" /><path d="M221,153 220,154 218,154 213,159 213,161 212,162 212,164 211,165 211,168 210,169 210,171 209,172 209,174 208,175 208,178 207,179 207,181 206,182 206,184 205,185 205,188 204,189 204,191 203,192 203,194 202,195 202,198 201,199 201,201 200,202 200,205 199,206 199,208 198,209 198,211 197,212 197,215 200,215 202,213 203,213 204,212 204,211 205,210 205,209 206,208 206,206 207,205 207,203 208,202 208,199 209,198 209,196 210,195 210,193 211,192 211,189 212,188 212,186 213,185 213,183 214,182 214,179 215,178 215,176 216,175 216,173 217,172 217,169 218,168 218,166 219,165 219,163 220,162 220,159 221,158 221,156 222,155 222,154" fill="black" /><path d="M183,153 182,154 180,154 178,156 178,161 179,162 179,164 180,165 180,167 181,168 181,170 182,171 182,173 183,174 183,176 184,177 184,179 185,180 185,182 186,183 186,185 187,186 187,189 188,190 188,192 189,193 189,195 190,196 190,198 191,199 191,201 192,202 192,204 193,205 193,206 194,206 196,204 196,203 197,202 197,201 198,200 198,195 197,194 197,191 196,190 196,188 195,187 195,185 194,184 194,181 193,180 193,178 192,177 192,175 191,174 191,172 190,171 190,168 189,167 189,165 188,164 188,162 187,161 187,159 186,158 186,156 185,155 185,154 184,154" fill="black" /><path d="M158,153 157,154 156,154 155,155 154,155 152,157 152,215 155,215 156,214 157,214 159,212 159,211 160,210 160,154 159,153" fill="black" /><path d="M133,153 132,154 130,154 126,158 126,159 125,160 125,162 124,163 124,166 123,167 123,169 122,170 122,172 121,173 121,176 120,177 120,179 119,180 119,182 118,183 118,186 117,187 117,189 116,190 116,192 115,193 115,196 114,197 114,199 113,200 113,202 112,203 112,206 111,207 111,209 110,210 110,213 109,214 110,215 112,215 113,214 114,214 117,211 117,210 118,209 118,207 119,206 119,204 120,203 120,201 121,200 121,197 122,196 122,194 123,193 123,191 124,190 124,187 125,186 125,184 126,183 126,181 127,180 127,177 128,176 128,174 129,173 129,171 130,170 130,167 131,166 131,164 132,163 132,161 133,160 133,157 134,156 134,154" fill="black" /><path d="M95,153 94,154 92,154 90,156 90,159 91,160 91,163 92,164 92,166 93,167 93,169 94,170 94,172 95,173 95,175 96,176 96,178 97,179 97,181 98,182 98,184 99,185 99,188 100,189 100,191 101,192 101,194 102,195 102,197 103,198 103,200 104,201 104,203 105,204 105,205 106,206 107,206 108,205 108,204 109,203 109,202 110,201 110,193 109,192 109,190 108,189 108,187 107,186 107,184 106,183 106,180 105,179 105,177 104,176 104,174 103,173 103,170 102,169 102,167 101,166 101,164 100,163 100,161 99,160 99,157 98,156 98,155 96,153" fill="black" /></svg>